<svg width="70" height="90" viewBox="0 0 70 90" fill="none" xmlns="http://www.w3.org/2000/svg">
<g clip-path="url(#clip0_238_553)" filter="url(#filter0_d_238_553)">
<path d="M53.6653 45.9019C53.9044 45.9019 54.1338 45.8058 54.303 45.6348C54.4721 45.4637 54.5671 45.2318 54.5671 44.9899C54.5671 33.1455 47.19 25.3871 35.6884 25.0041V5.91204C35.6884 5.67015 35.5934 5.43817 35.4243 5.26713C35.2551 5.09609 35.0257 5 34.7866 5C34.5474 5 34.318 5.09609 34.1489 5.26713C33.9797 5.43817 33.8847 5.67015 33.8847 5.91204V25.0041C22.3771 25.3871 15 33.1455 15 44.9899C15 45.2318 15.095 45.4637 15.2641 45.6348C15.4333 45.8058 15.6627 45.9019 15.9018 45.9019H27.6559C27.9174 47.6392 28.7741 49.2284 30.0763 50.392C31.3785 51.5556 33.0435 52.2195 34.7806 52.2679C36.5186 52.2209 38.1851 51.5576 39.4885 50.3939C40.792 49.2302 41.6495 47.6402 41.9112 45.9019H53.6653ZM34.7806 26.8099C43.27 26.8099 52.3305 31.3701 52.7454 44.0778H16.8037C17.2306 31.3701 26.2911 26.8099 34.7806 26.8099ZM34.7806 50.4439C33.5225 50.3951 32.317 49.9211 31.3567 49.0977C30.3965 48.2743 29.737 47.1491 29.4837 45.9019H40.0834C39.8299 47.15 39.1695 48.276 38.208 49.0995C37.2466 49.923 36.0396 50.3964 34.7806 50.4439V50.4439ZM54.6453 56.9984L49.0478 52.6814C48.8572 52.5347 48.6169 52.4705 48.3795 52.503C48.1422 52.5355 47.9273 52.662 47.7822 52.8547C47.6371 53.0474 47.5736 53.2905 47.6058 53.5305C47.6379 53.7705 47.763 53.9878 47.9536 54.1346L53.551 58.4516C53.7416 58.5983 53.982 58.6625 54.2193 58.63C54.3368 58.6139 54.4501 58.5746 54.5526 58.5142C54.655 58.4539 54.7448 58.3737 54.8166 58.2783C54.8885 58.1829 54.941 58.0741 54.9713 57.9581C55.0016 57.8421 55.009 57.7213 54.9931 57.6024C54.9772 57.4836 54.9382 57.3691 54.8786 57.2654C54.8189 57.1618 54.7396 57.071 54.6453 56.9984V56.9984ZM21.9803 52.6084L16.5392 57.12C16.4286 57.1883 16.3339 57.2799 16.2615 57.3885C16.189 57.4971 16.1406 57.6203 16.1195 57.7495C16.0983 57.8788 16.105 58.0111 16.139 58.1376C16.173 58.264 16.2335 58.3815 16.3164 58.4822C16.3994 58.5829 16.5028 58.6643 16.6196 58.7209C16.7364 58.7775 16.864 58.8079 16.9935 58.8102C17.123 58.8125 17.2515 58.7865 17.3703 58.7341C17.489 58.6817 17.5951 58.6039 17.6815 58.5063L23.1287 54.0008C23.2242 53.9263 23.3039 53.8331 23.3632 53.7269C23.4225 53.6206 23.4601 53.5034 23.4738 53.3822C23.4875 53.261 23.477 53.1382 23.4429 53.0212C23.4089 52.9042 23.3519 52.7952 23.2755 52.7008C23.1991 52.6065 23.1047 52.5285 22.9979 52.4717C22.8912 52.4149 22.7742 52.3803 22.654 52.3699C22.5338 52.3596 22.4128 52.3738 22.2981 52.4116C22.1834 52.4495 22.0774 52.5102 21.9863 52.5902L21.9803 52.6084ZM35.0451 56.8099C34.8059 56.8099 34.5765 56.906 34.4074 57.077C34.2383 57.2481 34.1432 57.48 34.1432 57.7219V64.088C34.1432 64.3299 34.2383 64.5618 34.4074 64.7329C34.5765 64.9039 34.8059 65 35.0451 65C35.2843 65 35.5137 64.9039 35.6828 64.7329C35.8519 64.5618 35.9469 64.3299 35.9469 64.088V57.7219C35.9469 57.48 35.8519 57.2481 35.6828 57.077C35.5137 56.906 35.2843 56.8099 35.0451 56.8099V56.8099Z" fill="white"/>
</g>
<defs>
<filter id="filter0_d_238_553" x="0" y="0" width="70" height="90" filterUnits="userSpaceOnUse" color-interpolation-filters="sRGB">
<feFlood flood-opacity="0" result="BackgroundImageFix"/>
<feColorMatrix in="SourceAlpha" type="matrix" values="0 0 0 0 0 0 0 0 0 0 0 0 0 0 0 0 0 0 127 0" result="hardAlpha"/>
<feOffset dy="10"/>
<feGaussianBlur stdDeviation="7.5"/>
<feComposite in2="hardAlpha" operator="out"/>
<feColorMatrix type="matrix" values="0 0 0 0 0 0 0 0 0 0 0 0 0 0 0 0 0 0 0.25 0"/>
<feBlend mode="normal" in2="BackgroundImageFix" result="effect1_dropShadow_238_553"/>
<feBlend mode="normal" in="SourceGraphic" in2="effect1_dropShadow_238_553" result="shape"/>
</filter>
<clipPath id="clip0_238_553">
<rect width="40" height="60" fill="white" transform="translate(15 5)"/>
</clipPath>
</defs>
</svg>
