<svg width="90" height="90" viewBox="0 0 90 90" fill="none" xmlns="http://www.w3.org/2000/svg">
<g filter="url(#filter0_d_228_578)">
<path d="M74.6737 63.1094L66.7537 24.8295C66.6283 24.2222 66.0871 23.7801 65.4601 23.7801H24.5401C23.9131 23.7801 23.3719 24.2222 23.2465 24.8295L15.3265 63.1094C15.2473 63.4988 15.3463 63.9015 15.5971 64.2117C15.8479 64.5219 16.2241 64.7001 16.6201 64.7001H73.3801C73.7761 64.7001 74.1523 64.5219 74.4031 64.2117C74.6539 63.9081 74.7529 63.4988 74.6737 63.1094ZM67.7965 42.9201C67.7833 42.9201 67.7767 42.9201 67.7701 42.9201H46.3201V26.42H64.3843L67.7965 42.9201ZM25.6159 26.42H43.6801V42.9201H22.2301C22.2169 42.9201 22.2103 42.9201 22.2037 42.9201L25.6159 26.42ZM21.6823 45.4347C21.8473 45.5138 22.0321 45.5601 22.2301 45.5601H43.6801V62.0601H18.2437L21.6823 45.4347ZM46.3201 62.0601V45.5601H67.7701C67.9681 45.5601 68.1529 45.5138 68.3179 45.4347L71.7565 62.0601H46.3201ZM49.6201 12.56C51.4417 12.56 52.9201 14.0384 52.9201 15.86C52.9201 16.586 53.5141 17.18 54.2401 17.18C54.9661 17.18 55.5601 16.586 55.5601 15.86C55.5601 14.0384 57.0385 12.56 58.8601 12.56C59.5861 12.56 60.1801 11.966 60.1801 11.24C60.1801 10.514 59.5861 9.92005 58.8601 9.92005C57.0385 9.92005 55.5601 8.44165 55.5601 6.62005C55.5601 5.89405 54.9661 5.30005 54.2401 5.30005C53.5141 5.30005 52.9201 5.89405 52.9201 6.62005C52.9201 8.44165 51.4417 9.92005 49.6201 9.92005C48.8941 9.92005 48.3001 10.514 48.3001 11.24C48.3001 11.966 48.8941 12.56 49.6201 12.56ZM54.2401 10.3424C54.5041 10.6724 54.8077 10.9694 55.1377 11.24C54.8077 11.504 54.5107 11.8076 54.2401 12.1376C53.9761 11.8076 53.6725 11.5106 53.3425 11.24C53.6725 10.976 53.9761 10.6724 54.2401 10.3424ZM31.1401 15.2C32.9617 15.2 34.4401 16.6784 34.4401 18.5C34.4401 19.226 35.0341 19.82 35.7601 19.82C36.4861 19.82 37.0801 19.226 37.0801 18.5C37.0801 16.6784 38.5585 15.2 40.3801 15.2C41.1061 15.2 41.7001 14.606 41.7001 13.88C41.7001 13.154 41.1061 12.56 40.3801 12.56C38.5585 12.56 37.0801 11.0816 37.0801 9.26005C37.0801 8.53405 36.4861 7.94005 35.7601 7.94005C35.0341 7.94005 34.4401 8.53405 34.4401 9.26005C34.4401 11.0816 32.9617 12.56 31.1401 12.56C30.4141 12.56 29.8201 13.154 29.8201 13.88C29.8201 14.606 30.4141 15.2 31.1401 15.2ZM35.7601 12.9824C36.0241 13.3124 36.3277 13.6094 36.6577 13.88C36.3277 14.144 36.0307 14.4476 35.7601 14.7776C35.4961 14.4476 35.1925 14.1506 34.8625 13.88C35.1925 13.616 35.4961 13.3124 35.7601 12.9824Z" fill="white"/>
</g>
<defs>
<filter id="filter0_d_228_578" x="-3" y="-3" width="96" height="96" filterUnits="userSpaceOnUse" color-interpolation-filters="sRGB">
<feFlood flood-opacity="0" result="BackgroundImageFix"/>
<feColorMatrix in="SourceAlpha" type="matrix" values="0 0 0 0 0 0 0 0 0 0 0 0 0 0 0 0 0 0 127 0" result="hardAlpha"/>
<feOffset dy="10"/>
<feGaussianBlur stdDeviation="7.5"/>
<feComposite in2="hardAlpha" operator="out"/>
<feColorMatrix type="matrix" values="0 0 0 0 0 0 0 0 0 0 0 0 0 0 0 0 0 0 0.25 0"/>
<feBlend mode="normal" in2="BackgroundImageFix" result="effect1_dropShadow_228_578"/>
<feBlend mode="normal" in="SourceGraphic" in2="effect1_dropShadow_228_578" result="shape"/>
</filter>
</defs>
</svg>
